<svg height="511pt" viewBox="-58 0 511 511.99976" width="511pt" xmlns="http://www.w3.org/2000/svg"><path d="m335.519531 50.425781-63-36.871093c-28.894531-19.152344-67.617187-18.722657-110.1875 5.855468-89.378906 51.605469-161.832031 190.042969-161.832031 309.214844 0 63.878906 20.824219 109.242188 53.910156 129.648438l.019532.011718c1.179687.730469 2.378906 1.421875 3.59375 2.085938l63.585937 36.945312c3.765625 2.628906 7.703125 4.917969 11.796875 6.855469l.007812.003906h.003907c27.53125 13.015625 62.277343 10.207031 100.042969-11.597656 89.378906-51.601563 161.832031-190.042969 161.832031-309.210937.003906-67.578126-23.300781-114.433594-59.773438-132.941407zm0 0" fill="#e20000"/><path d="m233.460938 492.578125c-89.375 51.605469-161.832032-3.171875-161.832032-122.34375 0-119.167969 72.457032-257.609375 161.832032-309.210937 89.378906-51.601563 161.835937 3.171874 161.835937 122.34375 0 119.171874-72.457031 257.609374-161.835937 309.210937zm0 0" fill="#f94f0d"/><g fill="#ede9e8"><path d="m247.296875 318.464844c-7.703125 4.445312-13.945313-.273438-13.945313-10.546875v-176.660157c0-10.273437 6.242188-22.203124 13.945313-26.648437 7.703125-4.449219 13.945313.273437 13.945313 10.542969v176.664062c0 10.269532-6.242188 22.199219-13.945313 26.648438zm0 0"/><path d="m277.980469 166.125v.613281c0 6.878907 2.964843 11.351563 7.546875 11.855469 28.265625 3.121094 47.214844 32.4375 45.320312 79.316406-2.34375 58.042969-36.90625 123.742188-79.4375 151.027344-48.003906 30.796875-87.796875 2.585938-87.796875-60.757812 0-43.160157 18.484375-91.320313 45.445313-125.429688 4.589844-5.808594 7.554687-13.707031 7.554687-20.59375v-.613281c0-13.832031-10.984375-16.273438-20.210937-4.617188-36.382813 45.96875-61.210938 111.140625-60.675782 169.207031.714844 77.472657 47.144532 115.324219 105.480469 85.800782 64.277344-32.53125 117.664063-131.765625 117.664063-216.484375 0-57.605469-24.6875-93.382813-60.695313-97.292969-9.21875-1-20.195312 14.148438-20.195312 27.96875zm0 0"/></g></svg>