<svg height="512pt" viewBox="0 0 512 512" width="512pt" xmlns="http://www.w3.org/2000/svg"><path d="m256 0c-141.382812 0-255.99609375 114.617188-255.99609375 256s114.61328175 255.996094 255.99609375 255.996094c141.386719 0 256-114.613282 256-255.996094s-114.613281-256-256-256zm0 364.296875c-59.714844 0-108.296875-48.582031-108.296875-108.296875s48.582031-108.296875 108.296875-108.296875 108.296875 48.582031 108.296875 108.296875-48.582031 108.296875-108.296875 108.296875zm0 0" fill="#636978"/><path d="m256 0v147.703125c59.714844 0 108.296875 48.582031 108.296875 108.296875s-48.582031 108.296875-108.296875 108.296875v147.699219c141.386719 0 256-114.613282 256-255.996094s-114.613281-256-256-256zm0 0" fill="#414952"/><path d="m256 94.550781c-89.023438 0-161.449219 72.425781-161.449219 161.449219s72.425781 161.449219 161.449219 161.449219c89.027344 0 161.453125-72.425781 161.453125-161.449219s-72.425781-161.449219-161.453125-161.449219zm0 269.746094c-59.714844 0-108.296875-48.582031-108.296875-108.296875s48.582031-108.296875 108.296875-108.296875 108.296875 48.582031 108.296875 108.296875-48.582031 108.296875-108.296875 108.296875zm0 0" fill="#dbeeff"/><path d="m256 94.550781v53.152344c59.714844 0 108.296875 48.582031 108.296875 108.296875s-48.582031 108.296875-108.296875 108.296875v53.152344c89.027344 0 161.453125-72.425781 161.453125-161.449219 0-89.027344-72.425781-161.449219-161.453125-161.449219zm0 0" fill="#b2d3ff"/><g fill="#414952"><path d="m256 0c-8.703125 0-17.308594.441406-25.789062 1.289062l-12.101563 19.867188c-4.417969 7.242188-2.121094 16.695312 5.125 21.105469 2.496094 1.523437 5.25 2.246093 7.976563 2.246093 5.179687 0 10.238281-2.621093 13.128906-7.371093l22.476562-36.890625c-3.585937-.152344-7.1875-.246094-10.816406-.246094zm0 0"/><path d="m128.003906 34.296875c-7.542968 4.351563-14.773437 9.035156-21.695312 14.011719l-.546875 23.253906c-.199219 8.480469 6.511719 15.519531 14.992187 15.71875 2.921875.070312 5.671875-.683594 8.03125-2.042969 4.488282-2.589843 7.554688-7.390625 7.6875-12.949219l1.019532-43.1875c-3.183594 1.664063-6.351563 3.382813-9.488282 5.195313zm0 0"/><path d="m34.296875 127.996094c-4.351563 7.539062-8.273437 15.210937-11.777344 22.980468l11.152344 20.414063c4.066406 7.445313 13.398437 10.183594 20.839844 6.117187 2.566406-1.402343 4.574219-3.429687 5.933593-5.789062 2.589844-4.484375 2.851563-10.175781.183594-15.054688l-20.710937-37.914062c-1.921875 3.035156-3.808594 6.109375-5.621094 9.246094zm0 0"/><path d="m0 255.996094c0 8.707031.4375 17.308594 1.289062 25.789062l19.863282 12.105469c7.246094 4.414063 16.699218 2.117187 21.109375-5.125 1.519531-2.496094 2.246093-5.253906 2.246093-7.976563 0-5.183593-2.625-10.242187-7.371093-13.132812l-36.894531-22.476562c-.148438 3.589843-.242188 7.191406-.242188 10.816406zm0 0"/><path d="m34.296875 383.996094c4.351563 7.539062 9.035156 14.769531 14.011719 21.691406l23.253906.550781c8.480469.199219 15.519531-6.515625 15.71875-14.996093.070312-2.921876-.683594-5.671876-2.046875-8.03125-2.589844-4.484376-7.386719-7.554688-12.945313-7.6875l-43.191406-1.015626c1.664063 3.179688 3.386719 6.347657 5.199219 9.488282zm0 0"/><path d="m127.996094 477.699219c7.539062 4.351562 15.210937 8.273437 22.980468 11.78125l20.414063-11.152344c7.445313-4.070313 10.183594-13.402344 6.113281-20.84375-1.398437-2.566406-3.425781-4.570313-5.785156-5.933594-4.484375-2.589843-10.175781-2.847656-15.058594-.183593l-37.910156 20.710937c3.035156 1.925781 6.105469 3.808594 9.246094 5.621094zm0 0"/><path d="m255.996094 511.996094c8.707031 0 17.308594-.4375 25.789062-1.285156l12.105469-19.867188c4.414063-7.246094 2.117187-16.695312-5.125-21.109375-2.496094-1.519531-5.253906-2.242187-7.976563-2.242187-5.183593 0-10.242187 2.621093-13.132812 7.367187l-22.476562 36.894531c3.585937.148438 7.191406.242188 10.816406.242188zm0 0"/></g><path d="m383.996094 477.703125c7.539062-4.355469 14.769531-9.035156 21.691406-14.011719l.546875-23.253906c.199219-8.484375-6.511719-15.519531-14.992187-15.71875-2.921876-.070312-5.671876.683594-8.03125 2.042969-4.488282 2.589843-7.554688 7.390625-7.6875 12.949219l-1.019532 43.1875c3.183594-1.664063 6.351563-3.382813 9.492188-5.195313zm0 0" fill="#23272b"/><path d="m477.699219 384c4.351562-7.539062 8.273437-15.207031 11.78125-22.980469l-11.152344-20.414062c-4.070313-7.445313-13.402344-10.179688-20.84375-6.113281-2.566406 1.398437-4.570313 3.425781-5.933594 5.785156-2.589843 4.488281-2.847656 10.179687-.183593 15.058594l20.710937 37.910156c1.925781-3.03125 3.808594-6.105469 5.621094-9.246094zm0 0" fill="#23272b"/><path d="m511.996094 256.003906c0-8.707031-.4375-17.3125-1.289063-25.792968l-19.863281-12.101563c-7.246094-4.414063-16.695312-2.121094-21.109375 5.125-1.519531 2.496094-2.246094 5.253906-2.246094 7.976563 0 5.179687 2.625 10.238281 7.371094 13.132812l36.894531 22.476562c.148438-3.589843.242188-7.191406.242188-10.816406zm0 0" fill="#23272b"/><path d="m477.703125 128.003906c-4.355469-7.542968-9.035156-14.773437-14.011719-21.695312l-23.257812-.546875c-8.480469-.199219-15.515625 6.511719-15.714844 14.992187-.070312 2.921875.679688 5.671875 2.042969 8.03125 2.589843 4.488282 7.390625 7.554688 12.949219 7.6875l43.1875 1.019532c-1.664063-3.183594-3.382813-6.351563-5.195313-9.488282zm0 0" fill="#23272b"/><path d="m384 34.300781c-7.539062-4.355469-15.207031-8.277343-22.980469-11.78125l-20.414062 11.152344c-7.445313 4.066406-10.179688 13.398437-6.113281 20.84375 1.398437 2.5625 3.425781 4.570313 5.785156 5.933594 4.488281 2.589843 10.179687 2.847656 15.058594.179687l37.910156-20.710937c-3.03125-1.921875-6.105469-3.804688-9.246094-5.617188zm0 0" fill="#23272b"/><path d="m288.765625 469.734375c-2.496094-1.519531-5.253906-2.242187-7.976563-2.242187-5.183593 0-10.242187 2.621093-13.132812 7.367187l-11.65625 19.132813v18.003906c8.703125 0 17.304688-.4375 25.785156-1.285156l12.105469-19.867188c4.414063-7.246094 2.117187-16.695312-5.125-21.109375zm0 0" fill="#23272b"/><path d="m256 18.003906 10.820312-17.761718c-3.589843-.148438-7.191406-.242188-10.816406-.242188-.003906 0-.003906 0-.003906 0zm0 0" fill="#23272b"/></svg>